<svg width="1200" height="630" viewBox="0 0 1200 630" fill="none" xmlns="http://www.w3.org/2000/svg">
  <defs>
    <linearGradient id="bgGradient" x1="0%" y1="0%" x2="100%" y2="100%">
      <stop offset="0%" stop-color="#0F172A"/>
      <stop offset="100%" stop-color="#0B1221"/>
    </linearGradient>
    <linearGradient id="glow" x1="0%" y1="0%" x2="100%" y2="0%">
      <stop offset="0%" stop-color="#A855F7"/>
      <stop offset="50%" stop-color="#06B6D4"/>
      <stop offset="100%" stop-color="#34D399"/>
    </linearGradient>
    <filter id="blur" x="-20%" y="-20%" width="140%" height="140%">
      <feGaussianBlur stdDeviation="15" />
    </filter>
  </defs>
  <rect width="1200" height="630" fill="url(#bgGradient)"/>
  <circle cx="900" cy="140" r="180" fill="#06B6D4" opacity="0.09" filter="url(#blur)"/>
  <circle cx="320" cy="500" r="200" fill="#A855F7" opacity="0.08" filter="url(#blur)"/>
  <g stroke="url(#glow)" stroke-width="8" stroke-linecap="round" stroke-linejoin="round">
    <path d="M600 130 L430 480 L600 480 L770 480 Z" fill="none" stroke-opacity="0.7"/>
    <path d="M470 360 L730 360 M520 260 L680 260" stroke-opacity="0.6"/>
    <path d="M600 130 L520 260 L470 360 L520 480" stroke-opacity="0.85"/>
    <path d="M600 130 L680 260 L730 360 L680 480" stroke-opacity="0.85"/>
    <path d="M430 480 L520 360 L600 480 L680 360 L770 480" stroke-opacity="0.8"/>
    <path d="M360 480 Q400 400 470 360" stroke-opacity="0.6"/>
    <path d="M840 480 Q800 400 730 360" stroke-opacity="0.6"/>
  </g>
  <g fill="url(#glow)">
    <circle cx="600" cy="130" r="16"/>
    <circle cx="520" cy="260" r="14"/>
    <circle cx="680" cy="260" r="14"/>
    <circle cx="470" cy="360" r="12"/>
    <circle cx="730" cy="360" r="12"/>
    <circle cx="520" cy="480" r="12"/>
    <circle cx="680" cy="480" r="12"/>
    <circle cx="600" cy="480" r="13"/>
    <circle cx="430" cy="480" r="12"/>
    <circle cx="770" cy="480" r="12"/>
  </g>
  <text x="600" y="560" text-anchor="middle" fill="#FFFFFF" font-family="Inter, system-ui, sans-serif" font-size="56" font-weight="800" letter-spacing="1">
    AIdiofy
  </text>
  <text x="600" y="610" text-anchor="middle" fill="#9CA3AF" font-family="Inter, system-ui, sans-serif" font-size="22" font-weight="500">
    Turn text into immersive audio
  </text>
</svg>
